<svg xmlns="http://www.w3.org/2000/svg" viewBox="0 0 340 250" font-family="Poppins"><defs>
  <linearGradient id="badgeGrad" x1="0" y1="0" x2="0" y2="1">
    <stop offset="0" stop-color="#0B1430"/>
    <stop offset="1" stop-color="#050A1C"/>
  </linearGradient>
  <linearGradient id="goldGrad" x1="0" y1="0" x2="0" y2="1">
    <stop offset="0" stop-color="#F1CB63"/>
    <stop offset="1" stop-color="#E0B53D"/>
  </linearGradient>
</defs><rect x="118.0" y="44.0" width="104" height="104" rx="25.0" fill="url(#badgeGrad)" stroke="#E0B53D" stroke-opacity="0.55" stroke-width="2.5"/><path d="M 144.40,80.00 L 156.40,115.20 L 170.00,91.20 L 183.60,115.20 L 195.60,80.00" fill="none" stroke="#E0B53D" stroke-width="8.80" stroke-linecap="round" stroke-linejoin="round"/><circle cx="195.60" cy="72.80" r="4.80" fill="#FFFFFF"/><g transform="translate(30.64,211.00) scale(0.05800,-0.05800)" fill="#FFFFFF"><path transform="translate(0.00,0)" d="M1028 702 845 0H638L526 462L410 0H203L25 702H208L309 191L434 702H622L742 191L844 702Z"/><path transform="translate(1043.38,0)" d="M585 238H198Q202 186 231.5 158.5Q261 131 304 131Q368 131 393 185H575Q561 130 524.5 86.0Q488 42 433.0 17.0Q378 -8 310 -8Q228 -8 164.0 27.0Q100 62 64.0 127.0Q28 192 28 279Q28 366 63.5 431.0Q99 496 163.0 531.0Q227 566 310 566Q391 566 454.0 532.0Q517 498 552.5 435.0Q588 372 588 288Q588 264 585 238ZM413 333Q413 377 383.0 403.0Q353 429 308 429Q265 429 235.5 404.0Q206 379 199 333Z"/><path transform="translate(1650.76,0)" d="M446 479V558H617V1Q617 -76 586.5 -138.5Q556 -201 493.5 -238.0Q431 -275 338 -275Q214 -275 137.0 -216.5Q60 -158 49 -58H218Q226 -90 256.0 -108.5Q286 -127 330 -127Q383 -127 414.5 -96.5Q446 -66 446 1V80Q421 41 377.0 16.5Q333 -8 274 -8Q205 -8 149.0 27.5Q93 63 60.5 128.5Q28 194 28 280Q28 366 60.5 431.0Q93 496 149.0 531.0Q205 566 274 566Q333 566 377.5 542.0Q422 518 446 479ZM324 417Q273 417 237.5 380.5Q202 344 202 280Q202 216 237.5 178.5Q273 141 324 141Q375 141 410.5 178.0Q446 215 446 279Q446 343 410.5 380.0Q375 417 324 417Z"/><path transform="translate(2321.14,0)" d="M28 279Q28 365 66.0 430.5Q104 496 170.0 531.0Q236 566 318 566Q400 566 466.0 531.0Q532 496 570.0 430.5Q608 365 608 279Q608 193 569.5 127.5Q531 62 464.5 27.0Q398 -8 316 -8Q234 -8 168.5 27.0Q103 62 65.5 127.0Q28 192 28 279ZM434 279Q434 346 400.5 382.0Q367 418 318 418Q268 418 235.0 382.5Q202 347 202 279Q202 212 234.5 176.0Q267 140 316 140Q365 140 399.5 176.0Q434 212 434 279Z"/><path transform="translate(2949.52,0)" d="M617 326V0H447V303Q447 359 418.0 390.0Q389 421 340 421Q291 421 262.0 390.0Q233 359 233 303V0H62V558H233V484Q259 521 303.0 542.5Q347 564 402 564Q500 564 558.5 500.5Q617 437 617 326Z"/></g><g transform="translate(249.50,211.00) scale(0.05800,-0.05800)" fill="#E0B53D"><path transform="translate(0.00,0)" d="M499 124H237L195 0H16L270 702H468L722 0H541ZM455 256 368 513 282 256Z"/><path transform="translate(737.00,0)" d="M233 702V0H62V702Z"/></g></svg>